<svg width="20" height="13" viewBox="0 0 20 13" fill="none" xmlns="http://www.w3.org/2000/svg">
<path fill-rule="evenodd" clip-rule="evenodd" d="M19.365 1.53302C19.365 0.899974 18.8875 0.386791 18.2984 0.386791H17.2317C16.6426 0.386791 16.165 0.899974 16.165 1.53302V11.467C16.165 12.1 16.6426 12.6132 17.2317 12.6132H18.2984C18.8875 12.6132 19.365 12.1 19.365 11.467V1.53302ZM11.9309 2.83207H12.9976C13.5867 2.83207 14.0643 3.35757 14.0643 4.00581V11.4395C14.0643 12.0877 13.5867 12.6132 12.9976 12.6132H11.9309C11.3418 12.6132 10.8643 12.0877 10.8643 11.4395V4.00581C10.8643 3.35757 11.3418 2.83207 11.9309 2.83207ZM7.59915 5.48112H6.53249C5.94338 5.48112 5.46582 6.01331 5.46582 6.6698V11.4245C5.46582 12.081 5.94338 12.6132 6.53249 12.6132H7.59915C8.18826 12.6132 8.66582 12.081 8.66582 11.4245V6.6698C8.66582 6.01331 8.18826 5.48112 7.59915 5.48112ZM2.29837 7.92641H1.23171C0.642602 7.92641 0.165039 8.451 0.165039 9.09811V11.4415C0.165039 12.0886 0.642602 12.6132 1.23171 12.6132H2.29837C2.88748 12.6132 3.36504 12.0886 3.36504 11.4415V9.09811C3.36504 8.451 2.88748 7.92641 2.29837 7.92641Z" fill="black"/>
</svg>
