<svg width="18" height="13" viewBox="0 0 18 13" fill="none" xmlns="http://www.w3.org/2000/svg">
<path fill-rule="evenodd" clip-rule="evenodd" d="M8.93654 2.80213C11.4236 2.80223 13.8157 3.72432 15.6182 5.3778C15.7539 5.50545 15.9709 5.50384 16.1045 5.37419L17.402 4.11072C17.4697 4.04496 17.5075 3.95588 17.5069 3.8632C17.5063 3.77052 17.4675 3.68187 17.399 3.61688C12.668 -0.757833 5.2043 -0.757833 0.47329 3.61688C0.404758 3.68183 0.365874 3.77044 0.365242 3.86313C0.36461 3.95581 0.402283 4.04491 0.469923 4.11072L1.76779 5.37419C1.90139 5.50404 2.11851 5.50565 2.25416 5.3778C4.0569 3.72421 6.44918 2.80212 8.93654 2.80213ZM8.93318 7.0224C10.2905 7.02232 11.5994 7.53406 12.6055 8.45819C12.7416 8.58934 12.9559 8.5865 13.0886 8.45178L14.3759 7.13247C14.4437 7.06327 14.4813 6.96939 14.4803 6.87184C14.4793 6.77429 14.4398 6.68121 14.3707 6.61342C11.3068 3.72257 6.56211 3.72257 3.49828 6.61342C3.42907 6.68121 3.38959 6.77434 3.38868 6.87192C3.38777 6.9695 3.42552 7.06337 3.49345 7.13247L4.78036 8.45178C4.91302 8.5865 5.12738 8.58934 5.26346 8.45819C6.26892 7.53467 7.57676 7.02297 8.93318 7.0224ZM11.4576 9.81596C11.4595 9.9213 11.4225 10.0229 11.3552 10.0967L9.1785 12.5514C9.1147 12.6236 9.02771 12.6642 8.93694 12.6642C8.84617 12.6642 8.75917 12.6236 8.69537 12.5514L6.51834 10.0967C6.45109 10.0228 6.41409 9.92122 6.41608 9.81587C6.41808 9.71052 6.45889 9.61075 6.52887 9.54014C7.91897 8.22625 9.9549 8.22625 11.345 9.54014C11.4149 9.61081 11.4557 9.7106 11.4576 9.81596Z" fill="black"/>
</svg>
